<?xml version="1.0" encoding="UTF-8" standalone="no"?>
<!DOCTYPE svg PUBLIC "-//W3C//DTD SVG 1.1//EN" "http://www.w3.org/Graphics/SVG/1.1/DTD/svg11.dtd">
<svg width="100%" height="100%" viewBox="0 0 512 512" version="1.1" xmlns="http://www.w3.org/2000/svg" xmlns:xlink="http://www.w3.org/1999/xlink" xml:space="preserve" xmlns:serif="http://www.serif.com/" style="fill-rule:evenodd;clip-rule:evenodd;stroke-linejoin:round;stroke-miterlimit:2;">
    <g id="_BgvvCxrCzQJCrTAygk4yN" transform="matrix(1.08884,0,0,1.55165,259.362,158.993)">
        <path d="M88.385,8L0.391,160.359L176.379,160.359L88.385,8Z" style="fill:rgb(76,150,215);fill-rule:nonzero;"/>
    </g>
    <g id="_yKsSTN6EFJpBquNp52DAI" transform="matrix(0.430624,0,0,0.708283,314.316,301.291)">
        <path d="M88.385,8L0.391,160.359L176.379,160.359L88.385,8Z" style="fill:rgb(207,23,23);fill-rule:nonzero;"/>
    </g>
    <g id="_i97fEVs74BU2Kppb6ryfF" transform="matrix(0.944169,0,0,1.24016,13.6631,154.48)">
        <path d="M88.385,8L0.391,160.359L176.379,160.359L88.385,8Z" style="fill:rgb(22,130,0);fill-rule:nonzero;"/>
    </g>
    <g id="__piAvsaxjazsP-GwRz68Y" transform="matrix(0.397664,0,0,0.397664,207.735,68.4851)">
        <circle cx="88.385" cy="88.385" r="88.385" style="fill:rgb(247,224,49);"/>
    </g>
    <g id="_IgNMwPYraIRTUHe8W--jb" transform="matrix(0.830043,0,0,0.830043,44.3376,59.8701)">
        <g id="_W7ObXJ4BSZ9pGU5wXxYoj" transform="matrix(4.56275,0,0,4.56275,148.584,23.5318)">
            <path d="M81.44,86.337L74.555,86.337L51.302,25.878L53.346,20.321C53.659,19.465 53.218,18.514 52.36,18.199C51.509,17.886 50.551,18.324 50.238,19.18L49.418,21.41L48.43,19.1C48.071,18.263 47.097,17.872 46.26,18.231C45.419,18.59 45.029,19.562 45.388,20.401L47.751,25.925L24.518,86.335L16.794,86.335C15.879,86.335 15.14,87.075 15.14,87.989C15.14,88.903 15.879,89.643 16.794,89.643L81.44,89.643C82.355,89.643 83.094,88.903 83.094,87.989C83.094,87.075 82.355,86.337 81.44,86.337ZM40.865,86.337L49.536,63.789L58.207,86.337L40.865,86.337ZM28.062,86.337L30.009,81.276L32.936,81.276C33.62,81.276 34.175,80.722 34.175,80.038C34.175,79.351 33.619,78.798 32.936,78.798L30.962,78.798L31.604,77.123L35.668,77.123C36.353,77.123 36.907,76.566 36.907,75.881C36.907,75.197 36.352,74.643 35.668,74.643L32.56,74.643L48.381,33.507L48.381,60.343L38.38,86.337L28.062,86.337ZM71.01,86.337L60.693,86.337L50.691,60.343L50.691,33.507L71.01,86.337Z" style="fill-rule:nonzero;"/>
        </g>
        <g id="_mtrrfKQOt4C6tASPHFx_r" transform="matrix(2.31423,0,0,2.31423,126.758,-59.4471)">
            <path d="M49.001,22.768C47.36,22.768 46.031,21.439 46.031,19.798L46.031,2.97C46.031,1.33 47.36,0 49.001,0C50.641,0 51.97,1.33 51.97,2.97L51.97,19.799C51.97,21.439 50.641,22.768 49.001,22.768Z" style="fill-rule:nonzero;"/>
        </g>
        <g id="_YCWn-DGgPy-EBZOCAs6xH" transform="matrix(2.31423,0,0,2.31423,126.758,-59.9891)">
            <path d="M49.001,98C47.36,98 46.031,96.671 46.031,95.03L46.031,78.203C46.031,76.563 47.36,75.233 49.001,75.233C50.641,75.233 51.97,76.563 51.97,78.203L51.97,95.031C51.97,96.671 50.641,98 49.001,98Z" style="fill-rule:nonzero;"/>
        </g>
        <g id="_xiOEINHfOh5V-n2289ooQ" transform="matrix(2.31423,0,0,2.31423,125.131,-60.6727)">
            <path d="M95.032,51.968L78.203,51.968C76.563,51.968 75.233,50.64 75.233,48.999C75.233,47.359 76.563,46.029 78.203,46.029L95.032,46.029C96.672,46.029 98.002,47.359 98.002,48.999C98.001,50.64 96.671,51.968 95.032,51.968Z" style="fill-rule:nonzero;"/>
        </g>
        <g id="_8wwx5EkmPpGsBRCjo-6rm" transform="matrix(2.31423,0,0,2.31423,125.675,-60.6751)">
            <path d="M19.798,51.968L2.969,51.968C1.329,51.968 0,50.64 0,49C0,47.36 1.329,46.03 2.969,46.03L19.798,46.03C21.438,46.03 22.768,47.36 22.768,49C22.768,50.64 21.438,51.968 19.798,51.968Z" style="fill-rule:nonzero;"/>
        </g>
        <g id="_RTlekEmWEvbfrQ0_IfGP0_" serif:id="_RTlekEmWEvbfrQ0_IfGP0" transform="matrix(2.31423,0,0,2.31423,125.255,-59.8706)">
            <path d="M81.549,84.519C80.789,84.519 80.029,84.229 79.449,83.649L67.55,71.75C66.39,70.59 66.39,68.711 67.55,67.552C68.709,66.392 70.589,66.392 71.749,67.552L83.649,79.45C84.809,80.61 84.809,82.49 83.649,83.649C83.07,84.229 82.309,84.519 81.549,84.519Z" style="fill-rule:nonzero;"/>
        </g>
        <g id="_bs0uH4XzALQNltfFftFK9_" serif:id="_bs0uH4XzALQNltfFftFK9" transform="matrix(2.31423,0,0,2.31423,125.711,-59.4083)">
            <path d="M28.353,31.321C27.594,31.321 26.834,31.031 26.254,30.451L14.354,18.552C13.194,17.393 13.194,15.513 14.354,14.353C15.514,13.193 17.394,13.193 18.554,14.353L30.454,26.252C31.614,27.411 31.614,29.292 30.454,30.452C29.873,31.031 29.113,31.321 28.353,31.321Z" style="fill-rule:nonzero;"/>
        </g>
        <g id="_u8FEJi1HVyWa68ZplAy2B" transform="matrix(2.31423,0,0,2.31423,125.711,-59.8729)">
            <path d="M16.454,84.521C15.694,84.521 14.934,84.231 14.354,83.651C13.194,82.492 13.194,80.612 14.354,79.452L26.253,67.553C27.413,66.393 29.292,66.393 30.452,67.553C31.612,68.712 31.612,70.591 30.452,71.751L18.553,83.651C17.975,84.231 17.214,84.521 16.454,84.521Z" style="fill-rule:nonzero;"/>
        </g>
        <g id="_DelgUmeOU2oXaYv7BxCKe" transform="matrix(2.31423,0,0,2.31423,125.25,-59.4088)">
            <path d="M69.652,31.324C68.892,31.324 68.131,31.034 67.552,30.454C66.392,29.295 66.392,27.413 67.552,26.254L79.451,14.354C80.611,13.193 82.491,13.193 83.65,14.354C84.81,15.513 84.81,17.394 83.65,18.553L71.751,30.453C71.171,31.034 70.412,31.324 69.652,31.324Z" style="fill-rule:nonzero;"/>
        </g>
        <g id="_hUKQYueFe6UXkX0SdyEgE" transform="matrix(2.31423,0,0,2.31423,126.506,-58.6126)">
            <path d="M49.001,68.362C38.326,68.362 29.64,59.676 29.64,49C29.64,38.325 38.326,29.639 49.001,29.639C59.677,29.639 68.362,38.325 68.362,49C68.362,59.676 59.677,68.362 49.001,68.362ZM49.001,35.579C41.6,35.579 35.579,41.599 35.579,49C35.579,56.4 41.6,62.422 49.001,62.422C56.402,62.422 62.422,56.401 62.422,49C62.422,41.599 56.402,35.579 49.001,35.579Z" style="fill-rule:nonzero;"/>
        </g>
        <g id="_09NgMxOIl4MLCCHelL8E_" transform="matrix(4.56275,0,0,4.56275,-164.719,37.1318)">
            <path d="M73.138,70.965L27.361,70.965C26.785,70.965 26.249,70.671 25.939,70.186C25.629,69.701 25.588,69.09 25.831,68.568L49.113,18.359C49.389,17.763 49.987,17.381 50.644,17.381L50.655,17.381C51.316,17.385 51.914,17.775 52.184,18.379L74.679,68.588C74.913,69.11 74.867,69.715 74.555,70.195C74.244,70.675 73.71,70.965 73.138,70.965ZM30.003,67.59L70.533,67.59L50.617,23.137L30.003,67.59Z" style="fill-rule:nonzero;"/>
        </g>
        <g id="_8hQOo6fyCyW9BbK2Qq7cC" transform="matrix(4.56275,0,0,4.56275,-164.921,37.766)">
            <path d="M50.284,86.041C49.419,86.041 48.718,85.34 48.718,84.475L48.718,39.808C48.718,38.943 49.419,38.242 50.284,38.242C51.149,38.242 51.85,38.943 51.85,39.808L51.85,84.475C51.85,85.339 51.148,86.041 50.284,86.041Z" style="fill-rule:nonzero;"/>
        </g>
        <g id="_7v2tDBv7vSKClTboehG8W" transform="matrix(4.56275,0,0,4.56275,-164.525,35.0792)">
            <path d="M50.272,67.604C49.772,67.604 49.276,67.382 48.943,66.958C48.368,66.225 48.496,65.164 49.229,64.589L58.872,57.023C59.604,56.448 60.665,56.576 61.241,57.309C61.816,58.042 61.688,59.103 60.955,59.678L51.312,67.244C51.004,67.486 50.637,67.604 50.272,67.604ZM49.786,63.206C49.356,63.206 48.926,63.042 48.596,62.715L39.629,53.8C38.968,53.143 38.965,52.074 39.622,51.413C40.28,50.752 41.347,50.749 42.009,51.406L50.976,60.321C51.637,60.978 51.64,62.047 50.983,62.708C50.653,63.04 50.22,63.206 49.786,63.206ZM50.271,56.988C49.837,56.988 49.404,56.822 49.075,56.49C48.418,55.829 48.421,54.761 49.081,54.104L57.367,45.863C58.028,45.205 59.097,45.209 59.753,45.869C60.41,46.53 60.407,47.598 59.747,48.255L51.461,56.496C51.132,56.825 50.702,56.988 50.271,56.988ZM49.899,51.012C49.334,51.012 48.781,50.728 48.461,50.211L43.332,41.905C42.842,41.112 43.088,40.072 43.881,39.583C44.673,39.093 45.714,39.339 46.204,40.132L51.333,48.438C51.823,49.231 51.577,50.271 50.784,50.76C50.508,50.931 50.202,51.012 49.899,51.012Z" style="fill-rule:nonzero;"/>
        </g>
        <g id="_y8-tZ3ixPD2D-qgxeWBTI" transform="matrix(0,4.56275,-12.8496,0,1053.77,195.291)">
            <path d="M50.284,86.041C49.419,86.041 48.718,85.34 48.718,84.475L48.718,39.808C48.718,38.943 49.419,38.242 50.284,38.242C51.149,38.242 51.85,38.943 51.85,39.808L51.85,84.475C51.85,85.339 51.148,86.041 50.284,86.041Z" style="fill-rule:nonzero;"/>
        </g>
    </g>
</svg>
