<?xml version="1.0" encoding="UTF-8" standalone="no"?>
<!DOCTYPE svg PUBLIC "-//W3C//DTD SVG 1.1//EN" "http://www.w3.org/Graphics/SVG/1.1/DTD/svg11.dtd">
<svg width="100%" height="100%" viewBox="0 0 1024 1024" version="1.1" xmlns="http://www.w3.org/2000/svg" xmlns:xlink="http://www.w3.org/1999/xlink" xml:space="preserve" xmlns:serif="http://www.serif.com/" style="fill-rule:evenodd;clip-rule:evenodd;stroke-linejoin:round;stroke-miterlimit:2;">
    <g transform="matrix(1.71934,0,0,1.71934,-862.206,-236.801)">
        <g id="Mapache">
            <g id="Nariz" transform="matrix(1,0,0,1,32,-53)">
                <path d="M768.034,607.871L768.043,607.871L768.043,607.871L793.555,607.97C799.877,608.559 804.342,612.909 804.553,619.473C804.806,624.899 801.603,630.12 794.826,631.21L787.801,631.842C784.326,631.704 780.286,635.301 779.741,639.712L779.144,645.499C778.683,651.55 772.919,654.504 768.023,654.45L768.018,654.449C763.121,654.503 757.394,651.55 756.933,645.499L756.336,639.712C755.79,635.301 751.751,631.704 748.276,631.842L741.251,631.21C734.474,630.12 731.271,624.899 731.524,619.473C731.735,612.909 736.2,608.559 742.522,607.97L768.034,607.871L768.034,607.871Z"/>
            </g>
            <g id="Cara" transform="matrix(0.581619,0,0,0.581619,501.475,137.728)">
                <path d="M681.66,741.938C638.987,707.04 589.339,664.319 531.676,612.745C519.911,597.866 522.383,574.403 533.62,562.684L570.232,512.271C585.271,489.248 624.045,464.056 650.294,458.204C694.154,447.284 786.854,448.495 892.48,454.085C885.517,558.857 827.454,627.366 731.679,665.275L592.28,573.976L574.671,594.114L777.31,764.555L792.843,668.354L877.695,694.688L858.012,593.407L944.338,592.649L927.519,519.07L1025.22,625.523L916.09,631.913L943.175,759.665L829.599,727.86L810.503,837.83C786.302,822.523 757.498,801.921 723.34,775.278C702.75,810.405 678.45,841.593 654.006,863.029C562.066,943.657 462.573,943.06 370.952,863.336C346,841.624 323.071,811.333 301.341,775.345C267.212,801.962 238.441,822.538 214.264,837.83L195.168,727.86L81.592,759.665L108.677,631.913L-0.455,625.523L97.248,519.07L80.429,592.649L166.755,593.407L147.072,694.688L231.924,668.354L247.457,764.555L450.097,594.114L432.487,573.976L293.089,665.275C197.313,627.366 139.251,558.857 132.287,454.085C237.913,448.495 330.613,447.284 374.473,458.204C400.723,464.056 439.496,489.248 454.536,512.271L491.148,562.684C502.385,574.403 504.856,597.866 493.092,612.745C435.622,664.145 386.114,706.752 343.536,741.588C359.815,770.129 376.37,796.212 394.676,814.831C473.865,895.372 557.024,891.886 633.223,811.407C650.851,792.789 666.005,770.319 681.66,741.938ZM733.931,503.12L733.931,503.119L733.705,503.121C733.705,503.121 733.797,503.12 733.797,503.12L733.647,503.12L733.647,503.121L732.846,503.12L732.847,503.129C688.736,503.66 654.043,515.653 641.12,521.565L641.141,521.557C635.078,523.744 629.433,529.015 626.173,536.327C620.673,548.666 624.034,562.173 633.675,566.47C634.576,566.872 635.501,567.179 636.44,567.396L636.438,567.395L710.449,595.344L710.4,595.376C718.014,598.608 725.863,600.049 734.966,598.6C780.272,587.518 817.948,545.282 823.442,503.234L733.931,503.12ZM292.109,503.12L202.4,503.234C206.904,537.713 233.048,572.319 267.297,589.771C267.491,589.87 267.685,589.968 267.879,590.066L268.807,590.527C269.34,590.789 269.874,591.047 270.41,591.299L270.885,591.522C272.344,592.204 273.816,592.853 275.301,593.471C276.774,594.083 278.258,594.663 279.754,595.21C281.914,596 284.097,596.721 286.301,597.369L287.177,597.622L287.994,597.851C288.722,598.052 289.454,598.245 290.189,598.43L290.876,598.6C299.972,600.048 307.816,598.61 315.426,595.383L315.449,595.398L389.776,567.33L389.76,567.334C390.611,567.122 391.449,566.835 392.267,566.47C401.908,562.173 405.269,548.666 399.768,536.327C396.598,529.217 391.173,524.035 385.298,521.744L385.369,521.772C372.712,515.89 337.258,503.467 292.109,503.119L292.109,503.12ZM710.891,595.198L710.591,595.398C710.692,595.331 710.792,595.265 710.891,595.198ZM711.197,594.99L711.175,595.005L710.939,595.165C710.939,595.165 711.197,594.99 711.197,594.99ZM314.409,594.689L314.528,594.773L314.407,594.69L314.409,594.689ZM639.852,567.791L639.979,567.792L639.852,567.791ZM386.055,567.792L386.007,567.792L386.081,567.791L386.055,567.792ZM640.13,567.791L640.084,567.791L640.213,567.79L640.13,567.791ZM386.276,567.789L386.233,567.79L386.311,567.788L386.276,567.789ZM640.349,567.788L640.316,567.788L640.449,567.785L640.349,567.788ZM385.57,567.787L385.619,567.788L385.57,567.787ZM639.387,567.781L639.514,567.786L639.387,567.781ZM386.498,567.783L386.461,567.784L386.54,567.782L386.498,567.783ZM640.569,567.781L640.548,567.782L640.693,567.776L640.569,567.781ZM386.719,567.775L386.69,567.776L386.767,567.772L386.719,567.775ZM640.79,567.772L640.78,567.772L640.993,567.76L640.79,567.772ZM638.909,567.757L639.052,567.766L638.909,567.757ZM386.939,567.763L386.919,567.764L386.992,567.76L386.939,567.763ZM641.23,567.744L641.051,567.756L641.242,567.743L641.23,567.744ZM638.596,567.734C638.634,567.737 638.672,567.74 638.709,567.743C638.747,567.746 638.785,567.749 638.822,567.752L638.596,567.734ZM387.16,567.748L387.149,567.749L387.21,567.744L387.16,567.748ZM641.451,567.726L641.331,567.736L641.474,567.723L641.451,567.726ZM641.671,567.705L641.573,567.714L641.707,567.701L641.671,567.705ZM384.256,567.703L384.324,567.71L384.256,567.703ZM641.892,567.681L641.81,567.69L641.94,567.675L641.892,567.681ZM384.024,567.678L384.098,567.686L384.024,567.678ZM637.909,567.66L638.036,567.675L637.909,567.66ZM642.113,567.654L642.045,567.662L642.174,567.646L642.113,567.654ZM388.258,567.629L388.201,567.637L388.27,567.627L388.258,567.629ZM642.333,567.624L642.278,567.632L642.408,567.614L642.333,567.624ZM388.476,567.595L388.417,567.604L388.498,567.592L388.476,567.595ZM642.554,567.592L642.511,567.598L642.643,567.578L642.554,567.592ZM637.224,567.555L637.346,567.576L637.224,567.555ZM388.694,567.559L388.639,567.568L388.726,567.553L388.694,567.559ZM642.775,567.557L642.744,567.562L642.882,567.538L642.775,567.557ZM383.112,567.547L383.177,567.558L383.112,567.547ZM388.911,567.52L388.863,567.528L388.953,567.511L388.911,567.52ZM642.995,567.519L642.977,567.522L643.134,567.493L642.995,567.519ZM382.899,567.51L382.946,567.518L382.899,567.51ZM389.128,567.477L389.087,567.485L389.179,567.466L389.128,567.477ZM643.439,567.434L643.209,567.479C643.286,567.464 643.363,567.449 643.439,567.434ZM636.524,567.415L636.666,567.446L636.524,567.415ZM389.345,567.431L389.312,567.438L389.404,567.418L389.345,567.431ZM643.657,567.388L643.501,567.421L643.672,567.385L643.657,567.388ZM389.56,567.382L389.536,567.388L389.629,567.366L389.56,567.382ZM643.877,567.339L643.762,567.364L643.904,567.332L643.877,567.339ZM644.097,567.287L644.002,567.309L644.136,567.277L644.097,567.287ZM381.813,567.279L381.876,567.294L381.813,567.279ZM644.317,567.232L644.238,567.252L644.369,567.219L644.317,567.232ZM644.536,567.175L644.471,567.192L644.601,567.157L644.536,567.175ZM381.351,567.16L381.43,567.181L381.351,567.16ZM644.756,567.115L644.704,567.129L644.835,567.092L644.756,567.115ZM644.975,567.052L644.936,567.063L645.07,567.023L644.975,567.052ZM380.892,567.029L380.973,567.053L380.892,567.029ZM645.194,566.986L645.167,566.994L645.309,566.95L645.194,566.986ZM380.665,566.96L380.744,566.985L380.665,566.96ZM645.413,566.918L645.397,566.923L645.572,566.866L645.413,566.918ZM380.441,566.889L380.515,566.913L380.441,566.889ZM645.856,566.771L645.628,566.848C645.704,566.823 645.78,566.797 645.856,566.771ZM380.227,566.819L380.285,566.838L380.227,566.819ZM646.067,566.697L645.927,566.746L646.086,566.691L646.067,566.697ZM646.284,566.619L646.176,566.658L646.315,566.607L646.284,566.619ZM646.501,566.537L646.412,566.571L646.544,566.52L646.501,566.537ZM646.718,566.453L646.643,566.482L646.773,566.431L646.718,566.453ZM646.934,566.366L646.873,566.39L647.003,566.338L646.934,566.366ZM378.934,566.336L379.02,566.371L378.934,566.336ZM647.15,566.277L647.102,566.297L647.233,566.241L647.15,566.277ZM378.707,566.241L378.796,566.278L378.707,566.241ZM647.365,566.185L647.33,566.2L647.465,566.141L647.365,566.185ZM647.58,566.09L647.556,566.101L647.703,566.034L647.58,566.09ZM378.255,566.042L378.346,566.083L378.255,566.042ZM647.794,565.993L647.782,565.999L647.989,565.902L647.794,565.993ZM648.232,565.786L648.008,565.894C648.083,565.858 648.158,565.822 648.232,565.786ZM377.81,565.834L377.896,565.876L377.81,565.834ZM377.595,565.729L377.672,565.768L377.595,565.729ZM648.434,565.687L648.308,565.749L648.456,565.675L648.434,565.687ZM648.646,565.579L648.546,565.63L648.68,565.562L648.646,565.579ZM648.858,565.47L648.775,565.513L648.904,565.445L648.858,565.47ZM377.016,565.434L377.07,565.462L377.016,565.434ZM649.069,565.357L649,565.394L649.127,565.325L649.069,565.357ZM649.279,565.242L649.223,565.273L649.35,565.203L649.279,565.242ZM376.572,565.192L376.665,565.244L376.572,565.192ZM649.489,565.125L649.446,565.149L649.574,565.076L649.489,565.125ZM649.698,565.005L649.667,565.023L649.801,564.945L649.698,565.005ZM376.13,564.939L376.228,564.996L376.13,564.939ZM649.906,564.883L649.887,564.895L650.038,564.804L649.906,564.883ZM375.911,564.808L376.01,564.867L375.911,564.808ZM650.527,564.502L650.361,564.606L650.54,564.493L650.527,564.502ZM375.474,564.539L375.574,564.602L375.474,564.539ZM375.257,564.4L375.356,564.464L375.257,564.4ZM650.732,564.37L650.618,564.443L650.757,564.353L650.732,564.37ZM650.937,564.235L650.844,564.296L650.973,564.211L650.937,564.235ZM374.831,564.118L374.925,564.182L374.831,564.118ZM651.14,564.099L651.064,564.15L651.188,564.066L651.14,564.099ZM651.343,563.959L651.28,564.002L651.403,563.918L651.343,563.959ZM651.545,563.818L651.495,563.853L651.618,563.766L651.545,563.818ZM374.292,563.743L374.396,563.817L374.292,563.743ZM651.746,563.674L651.708,563.701L651.833,563.61L651.746,563.674ZM374.08,563.59L374.184,563.665L374.08,563.59ZM651.947,563.528L651.92,563.547L652.052,563.449L651.947,563.528ZM373.869,563.433L373.972,563.51L373.869,563.433ZM652.146,563.379L652.13,563.391L652.288,563.271L652.146,563.379ZM373.658,563.274L373.762,563.353L373.658,563.274ZM373.449,563.112L373.553,563.193L373.449,563.112ZM652.738,562.919L652.601,563.027L652.754,562.906L652.738,562.919ZM652.934,562.761L652.832,562.844L652.961,562.739L652.934,562.761ZM372.822,562.608L372.931,562.698L372.822,562.608ZM653.128,562.601L653.045,562.67L653.166,562.569L653.128,562.601ZM653.322,562.438L653.253,562.496L653.37,562.397L653.322,562.438ZM653.514,562.274L653.458,562.322L653.574,562.221L653.514,562.274ZM653.705,562.106L653.661,562.145L653.778,562.042L653.705,562.106ZM653.895,561.937L653.862,561.967L653.982,561.858L653.895,561.937ZM371.922,561.825L372.034,561.925L371.922,561.825ZM654.084,561.766L654.062,561.786L654.191,561.667L654.084,561.766ZM654.272,561.592L654.26,561.603L654.431,561.442L654.272,561.592ZM371.524,561.455L371.63,561.555L371.524,561.455ZM654.653,561.23L654.457,561.417C654.523,561.355 654.588,561.292 654.653,561.23ZM371.327,561.267L371.432,561.367L371.327,561.267ZM371.131,561.075L371.235,561.177L371.131,561.075ZM654.829,561.057L654.713,561.171L654.847,561.039L654.829,561.057ZM370.936,560.88L371.04,560.985L370.936,560.88ZM655.012,560.875L654.922,560.965L655.04,560.846L655.012,560.875ZM655.194,560.69L655.12,560.765L655.232,560.65L655.194,560.69ZM370.543,560.478L370.655,560.595L370.543,560.478ZM655.375,560.503L655.314,560.566L655.423,560.452L655.375,560.503ZM655.554,560.314L655.505,560.366L655.614,560.25L655.554,560.314ZM370.09,559.993L370.276,560.194L370.09,559.993ZM655.732,560.123L655.694,560.164L655.804,560.045L655.732,560.123ZM655.909,559.929L655.881,559.96L655.994,559.834L655.909,559.929ZM656.084,559.734L656.066,559.754L656.192,559.612L656.084,559.734ZM656.602,559.135L656.45,559.315L656.613,559.122L656.602,559.135ZM656.772,558.931L656.674,559.049L656.792,558.907L656.772,558.931ZM368.994,558.716L369.093,558.838L368.994,558.716ZM656.941,558.725L656.862,558.821L656.969,558.689L656.941,558.725ZM368.816,558.494L368.915,558.619L368.816,558.494ZM657.108,558.517L657.043,558.597L657.146,558.469L657.108,558.517ZM657.273,558.307L657.22,558.374L657.321,558.246L657.273,558.307ZM657.437,558.095L657.395,558.15L657.495,558.019L657.437,558.095ZM657.6,557.881L657.567,557.923L657.668,557.789L657.6,557.881ZM368.053,557.489L368.221,557.719L368.053,557.489ZM657.761,557.665L657.738,557.695L657.843,557.552L657.761,557.665ZM657.92,557.447L657.906,557.465L658.028,557.296L657.92,557.447ZM658.237,556.999L658.073,557.233C658.128,557.155 658.183,557.077 658.237,556.999ZM658.388,556.78L658.274,556.946L658.4,556.763L658.388,556.78ZM367.556,556.784L367.651,556.922L367.556,556.784ZM367.394,556.544L367.486,556.681L367.394,556.544ZM658.541,556.554L658.459,556.676L658.561,556.524L658.541,556.554ZM658.693,556.326L658.626,556.427L658.721,556.283L658.693,556.326ZM367.074,556.056L367.163,556.195L367.074,556.056ZM658.842,556.096L658.787,556.18L658.879,556.039L658.842,556.096ZM366.916,555.807L367.005,555.949L366.916,555.807ZM658.99,555.864L658.946,555.934L659.035,555.793L658.99,555.864ZM659.136,555.631L659.101,555.687L659.19,555.543L659.136,555.631ZM659.281,555.395L659.254,555.438L659.345,555.288L659.281,555.395ZM659.423,555.157L659.405,555.187L659.501,555.025L659.423,555.157ZM366.248,554.693L366.395,554.948L366.248,554.693ZM659.564,554.918L659.554,554.935L659.674,554.727L659.564,554.918ZM366.103,554.435L366.202,554.612L366.103,554.435ZM659.976,554.188L659.887,554.349L659.988,554.165L659.976,554.188ZM365.959,554.176L366.047,554.335L365.959,554.176ZM660.109,553.941L660.042,554.066L660.129,553.904L660.109,553.941ZM660.241,553.692L660.186,553.796L660.268,553.641L660.241,553.692ZM365.541,553.382L365.618,553.533L365.541,553.382ZM660.371,553.442L660.326,553.529L660.404,553.375L660.371,553.442ZM365.405,553.112L365.482,553.266L365.405,553.112ZM660.498,553.19L660.462,553.261L660.54,553.107L660.498,553.19ZM660.624,552.935L660.596,552.992L660.673,552.834L660.624,552.935ZM365.137,552.56L365.215,552.725L365.137,552.56ZM660.748,552.679L660.728,552.722L660.806,552.557L660.748,552.679ZM660.87,552.422L660.857,552.45L660.942,552.266L660.87,552.422ZM364.834,551.901L364.959,552.177L364.834,551.901ZM660.99,552.162L660.984,552.176L661.108,551.901L660.99,552.162ZM662.642,532.426C662.622,532.365 662.602,532.304 662.582,532.243C662.563,532.182 662.542,532.122 662.522,532.061L662.642,532.426ZM655.132,522.544L655.202,522.586L655.075,522.511L655.132,522.544ZM654.032,521.956L653.831,521.86C653.899,521.891 653.966,521.923 654.032,521.956L654.054,521.966L654.069,521.974C654.212,522.043 654.353,522.114 654.492,522.187L654.069,521.974L654.032,521.956ZM653.398,521.667L653.607,521.758C653.537,521.727 653.468,521.697 653.398,521.667ZM372.546,521.666L372.335,521.758L372.546,521.666ZM385.165,521.692L385.207,521.709L385.064,521.654L385.165,521.692ZM653.237,521.599L653.332,521.639L653.187,521.579L653.237,521.599ZM372.759,521.577L372.615,521.637L372.759,521.577ZM384.961,521.616L384.984,521.624L384.795,521.555L384.961,521.616ZM653.051,521.523L653.112,521.548L652.971,521.492L653.051,521.523ZM372.974,521.49L372.84,521.544L372.974,521.49ZM384.537,521.464L384.761,521.543C384.686,521.516 384.611,521.49 384.537,521.464ZM652.864,521.45L652.898,521.463L652.735,521.401L652.864,521.45ZM384.348,521.4L384.471,521.442L384.311,521.388L384.348,521.4ZM641.579,521.405L641.472,521.441L641.579,521.405ZM652.476,521.307L652.687,521.383C652.617,521.357 652.546,521.332 652.476,521.307ZM641.802,521.332L641.692,521.367L641.802,521.332ZM384.142,521.332L384.23,521.361L384.084,521.314L384.142,521.332ZM652.301,521.247L652.422,521.288L652.263,521.234L652.301,521.247ZM383.937,521.267L384,521.287L383.852,521.241L383.937,521.267ZM642.111,521.235L641.999,521.269L642.111,521.235ZM383.731,521.205L383.772,521.217L383.61,521.169L383.731,521.205ZM652.112,521.184L652.188,521.209L652.046,521.163L652.112,521.184ZM642.33,521.17L642.228,521.2L642.33,521.17ZM383.09,521.025L383.546,521.15C383.394,521.107 383.242,521.065 383.09,521.025ZM651.922,521.124L651.969,521.139L651.819,521.093L651.922,521.124ZM642.55,521.107L642.449,521.135L642.55,521.107ZM374.138,521.088L373.994,521.132L374.138,521.088ZM642.77,521.047L642.669,521.074L642.77,521.047ZM651.54,521.011L651.753,521.073C651.682,521.051 651.611,521.031 651.54,521.011ZM374.358,521.024L374.221,521.063L374.358,521.024ZM643.009,520.985L642.89,521.015L643.009,520.985ZM382.907,520.978L383.027,521.009L382.862,520.967L382.907,520.978ZM651.351,520.959L651.517,521.005L651.324,520.952L651.351,520.959ZM382.7,520.928L382.785,520.948L382.632,520.912L382.7,520.928ZM643.309,520.912L643.207,520.936L643.309,520.912ZM651.16,520.909L651.252,520.933L651.107,520.896L651.16,520.909ZM382.493,520.879L382.553,520.893L382.397,520.858L382.493,520.879ZM650.968,520.862L651.027,520.877L650.883,520.842L650.968,520.862ZM382.286,520.834L382.324,520.842L382.146,520.804L382.286,520.834ZM650.776,520.817L650.808,520.825L650.636,520.787L650.776,520.817ZM375.544,520.737L375.4,520.767L375.544,520.737ZM381.665,520.711L381.845,520.744L381.636,520.706L381.665,520.711ZM644.292,520.709L644.18,520.729L644.292,520.709ZM650.197,520.698L650.309,520.72L650.156,520.691L650.197,520.698ZM381.458,520.675L381.569,520.694L381.407,520.667L381.458,520.675ZM376.001,520.653L375.853,520.679L376.001,520.653ZM650.003,520.664L650.074,520.676L649.934,520.652L650.003,520.664ZM381.25,520.642L381.329,520.654L381.176,520.63L381.25,520.642ZM649.808,520.631L649.851,520.638L649.702,520.615L649.808,520.631ZM381.043,520.611L381.097,520.619L380.938,520.596L381.043,520.611ZM644.964,520.602L644.851,520.618L644.964,520.602ZM649.415,520.574L649.631,520.604C649.559,520.594 649.487,520.584 649.415,520.574ZM645.276,520.561C645.242,520.565 645.208,520.569 645.174,520.573C645.14,520.578 645.106,520.582 645.072,520.587L645.276,520.561ZM380.836,520.582L380.868,520.587L380.676,520.562L380.836,520.582ZM649.224,520.55L649.366,520.568L649.195,520.546L649.224,520.55ZM376.746,520.546L376.583,520.567L376.746,520.546ZM380.408,520.531L380.64,520.558C380.563,520.548 380.485,520.54 380.408,520.531ZM649.028,520.527L649.113,520.537L648.974,520.522L649.028,520.527ZM380.214,520.512L380.367,520.527L380.18,520.509L380.214,520.512ZM648.832,520.508L648.885,520.513L648.747,520.5L648.832,520.508ZM645.95,520.493L645.831,520.503L645.95,520.493ZM380.006,520.493L380.108,520.502L379.951,520.489L380.006,520.493ZM648.636,520.49L648.662,520.493L648.497,520.48L648.636,520.49ZM377.44,520.48L377.283,520.492L377.44,520.48ZM646.208,520.473L646.053,520.484L646.208,520.473ZM379.799,520.478L379.871,520.483L379.719,520.472L379.799,520.478ZM648.227,520.462L648.441,520.475C648.37,520.47 648.299,520.466 648.227,520.462ZM377.734,520.461L377.961,520.45C377.81,520.456 377.659,520.464 377.508,520.475L377.734,520.461ZM379.592,520.464L379.64,520.467L379.48,520.458L379.592,520.464ZM648.046,520.453L648.144,520.458L648.006,520.451L648.046,520.453ZM379.385,520.453L379.412,520.455L379.201,520.446L379.385,520.453ZM646.707,520.448L646.583,520.453L646.707,520.448ZM647.849,520.445L647.912,520.447L647.782,520.443L647.849,520.445ZM647.652,520.44L647.687,520.441L647.55,520.438L647.652,520.44ZM647.173,520.437L647.032,520.439L647.173,520.437ZM378.765,520.437L378.897,520.439L378.727,520.437L378.765,520.437Z"/>
            </g>
            <g id="Ojo-der" serif:id="Ojo der" transform="matrix(0.581619,0,0,0.581619,501.475,137.728)">
                <path d="M733.931,503.12L823.442,503.234C817.948,545.282 780.272,587.518 734.966,598.6C725.863,600.049 718.014,598.608 710.4,595.376L710.449,595.344L710.591,595.398C735.689,578.809 737.796,542.166 733.931,503.12ZM733.797,503.12L733.647,503.121L733.647,503.12L733.797,503.12Z" style="fill:white;"/>
            </g>
            <g id="Iris-der" serif:id="Iris der" transform="matrix(0.581619,0,0,0.581619,501.475,137.728)">
                <path d="M641.12,521.565C654.148,515.605 689.304,503.463 733.931,503.119C737.796,542.166 735.689,578.809 710.591,595.398L636.438,567.395C645.552,569.498 656.121,563.087 661.108,551.901C666.608,539.562 663.247,526.055 653.607,521.758C649.672,520.004 645.296,520.053 641.12,521.565Z" style="fill:rgb(188,129,8);"/>
            </g>
            <g id="Pupila-der" serif:id="Pupila der" transform="matrix(0.933614,0.416188,-0.407158,0.913358,240.57,-327.199)">
                <ellipse cx="878.878" cy="455.041" rx="10.882" ry="14.236" style="fill:white;"/>
            </g>
            <g id="Ojo-izq" serif:id="Ojo izq" transform="matrix(0.581619,0,0,0.581619,501.475,137.728)">
                <path d="M292.109,503.12C288.508,539.499 290.091,573.792 310.622,591.722C311.861,592.828 313.176,593.856 314.568,594.801C314.852,594.998 315.138,595.192 315.426,595.383C307.816,598.61 299.972,600.048 290.876,598.6C245.569,587.518 207.893,545.282 202.4,503.234L292.109,503.12Z" style="fill:white;"/>
            </g>
            <g id="Iris-izq" serif:id="Iris izq" transform="matrix(0.581619,0,0,0.581619,501.475,137.728)">
                <path d="M389.776,567.33L315.449,595.398C290.351,578.809 288.244,542.166 292.109,503.119C337.258,503.467 372.712,515.89 385.369,521.772C381.03,520.061 376.442,519.927 372.335,521.758C362.694,526.055 359.333,539.562 364.834,551.901C369.87,563.198 380.6,569.625 389.776,567.33Z" style="fill:rgb(188,129,8);"/>
            </g>
            <g id="Pupila-izq" serif:id="Pupila izq" transform="matrix(-0.933614,0.416188,0.407158,0.913358,1359.09,-327.199)">
                <ellipse cx="878.878" cy="455.041" rx="10.882" ry="14.236" style="fill:white;"/>
            </g>
            <g id="Orejas" transform="matrix(1,0,0,1,31.448,-53.721)">
                <path d="M516.412,452.454C519.609,423.139 532.116,398.411 553.688,384.05C548.154,340.826 547.889,301.494 556.114,268.435C558.249,258.138 565.617,253.567 578.938,255.511C614.226,261.204 650.214,277.13 687.09,306.026C741.578,290.746 795.98,290.566 850.291,306.679C876.687,282.321 913.407,265.769 959.138,256.031C970.179,252.936 977.846,256.836 981.573,268.907C988.23,303.556 987.715,342.542 982.597,384.31C1004.21,399.078 1016.41,422.491 1020.42,452.232C996.505,424.464 974.042,404.263 952.407,397.206C957.993,363.373 959.545,326.887 955.01,286.398C915.891,293.813 884.699,313.58 858.445,339.46C798.518,317.702 739.296,317.76 679.781,339.103C649.976,311.383 617.476,292.326 582.202,285.808C575.545,320.755 577.447,357.88 585.112,396.472C560.266,406.142 537.348,428.09 516.412,452.454Z"/>
            </g>
            <g id="Frente" transform="matrix(1,0,0,1,32,-53)">
                <path d="M679.917,338.137C739.206,317.039 798.199,317.066 857.893,338.739L857.934,338.698C867.229,342.501 876.381,346.923 885.331,351.97C900.101,342.444 916.482,334.255 935.432,328.199C936.014,335.244 936.366,342.31 936.473,349.4C936.567,355.656 936.47,361.93 936.17,368.224C942.374,369.426 948.765,371.289 954.974,373.373C954.151,381.222 953.104,388.92 951.855,396.485C969.306,402.177 987.295,416.421 1006.15,436.288C1006.93,437.116 1007.71,437.958 1008.5,438.81C1000.36,432.73 962.631,422.894 919.67,421.638C823.431,418.825 806.432,439.08 768.088,485.492C730.941,427.291 683.815,419.831 619.105,421.367C592.759,421.992 555.411,425.099 527.486,438.732C545.202,419.787 564.236,403.661 584.56,395.751C583.055,388.171 581.771,380.648 580.732,373.186C585.702,371.09 592.491,369.319 600.569,368.236C600.29,362.964 599.613,357.55 599.592,352.012C599.562,344.303 600.301,336.354 600.695,328.208C617.157,334.611 633.953,342.669 651.07,352.317C660.391,346.897 670.032,342.167 679.917,338.137Z" style="fill:rgb(188,129,8);"/>
            </g>
        </g>
    </g>
</svg>
