<?xml version="1.0" encoding="UTF-8" standalone="no"?>
<!DOCTYPE svg PUBLIC "-//W3C//DTD SVG 1.1//EN" "http://www.w3.org/Graphics/SVG/1.1/DTD/svg11.dtd">
<svg width="100%" height="100%" viewBox="0 0 1024 1024" version="1.1" xmlns="http://www.w3.org/2000/svg" xmlns:xlink="http://www.w3.org/1999/xlink" xml:space="preserve" xmlns:serif="http://www.serif.com/" style="fill-rule:evenodd;clip-rule:evenodd;stroke-linecap:round;stroke-linejoin:round;stroke-miterlimit:1.5;">
    <g id="der" transform="matrix(-1.06667,0,0,1.06667,1045.33,6.7991)">
        <g id="contorno--Curva-" serif:id="contorno (Curva)" transform="matrix(-1,0,0,1,1000,0)">
            <path d="M498.719,855.833C389.809,799.24 276.491,765.413 162.605,734.524L20,580L154.63,364.636L87.151,268.448L127.204,90.752L338.668,167.386L389.913,217.377L500,217L610.087,217.377L661.332,167.386L872.796,90.752L912.849,268.448L845.37,364.636L980,580L837.395,734.524C723.063,765.534 609.303,799.505 500,856.5L498.719,855.833Z" style="fill:white;stroke:white;stroke-width:0.94px;"/>
        </g>
        <path id="moflete" d="M163.779,734.836L162.611,734.526L20,580L289.332,695.924L379.596,802.665C309.809,775.73 237.388,754.094 163.779,734.836Z" style="fill:rgb(162,109,0);"/>
        <g id="moflete-izq" serif:id="moflete izq" transform="matrix(-1,0,0,1,1000,0)">
            <path d="M163.779,734.836L162.611,734.526L20,580L289.332,695.924L379.596,802.665C309.809,775.73 237.388,754.094 163.779,734.836Z" style="fill:rgb(162,109,0);"/>
        </g>
        <g id="cuenca-ojo-izq" serif:id="cuenca ojo izq" transform="matrix(-1,0,0,1,1000,0)">
            <path d="M289.333,695.925L452.641,534.589L414.103,461.61L363.69,415.479L380.524,468.883L299.757,448.527L20,580" style="fill:rgb(56,38,0);"/>
        </g>
        <g id="ojo-izq" serif:id="ojo izq" transform="matrix(-1,0,0,1,1000,0)">
            <path d="M410.314,569.049L386.229,507.564L320.825,487.262L279.041,542.751L410.314,569.049Z"/>
        </g>
        <g id="oreja-dentro-izq" serif:id="oreja dentro izq" transform="matrix(-1,0,0,1,1000,0)">
            <path d="M154.629,364.652L308.951,274.302L127.205,90.753L87.158,268.459L154.629,364.652Z" style="fill:rgb(36,24,1);"/>
        </g>
        <g id="oreja-fuera-izq" serif:id="oreja fuera izq" transform="matrix(-1,0,0,1,1000,0)">
            <path d="M308.951,274.302L389.913,217.377L338.665,167.384L127.205,90.753L308.951,274.302Z" style="fill:rgb(142,95,0);"/>
        </g>
        <path id="cuenca-ojo-der" serif:id="cuenca ojo der" d="M289.333,695.925L452.641,534.589L414.103,461.61L363.69,415.479L380.524,468.883L299.757,448.527L20,580" style="fill:rgb(56,38,0);"/>
        <path id="ojo-der" serif:id="ojo der" d="M410.314,569.049L386.229,507.564L320.825,487.262L279.041,542.751L410.314,569.049Z"/>
        <g id="nariz" transform="matrix(-1,0,0,1,1000,0)">
            <path d="M458.519,773.32L430.289,723.865L458.522,686.575L500,686.575L541.478,686.575L569.711,723.865L541.481,773.32L500,773.323L458.519,773.32Z" style="fill:rgb(36,24,1);"/>
        </g>
        <g id="frente" transform="matrix(-1,0,0,1,1000,0)">
            <path d="M458.523,686.575L447.325,390L352.275,336.313L93.5,458L154.63,364.644L308.951,274.302L389.913,217.377L500,217L610.087,217.377L691.049,274.302L845.37,364.644L906.5,458L647.725,336.313L552.675,390L541.477,686.575L500,686.558L458.523,686.575Z" style="fill:rgb(188,129,8);"/>
        </g>
        <path id="oreja-dentro-der" serif:id="oreja dentro der" d="M154.629,364.652L308.951,274.302L127.205,90.753L87.158,268.459L154.629,364.652Z" style="fill:rgb(36,24,1);"/>
        <path id="oreja-fuera-der" serif:id="oreja fuera der" d="M308.951,274.302L389.913,217.377L338.665,167.384L127.205,90.753L308.951,274.302Z" style="fill:rgb(142,95,0);"/>
        <g id="menton" transform="matrix(-1,0,0,1,1000,0)">
            <path d="M498.87,855.918C475.123,843.71 450.762,832.263 426.062,821.62L424.65,820.954L458.527,773.323L500,773.327L541.473,773.323L575.35,820.954L573.938,821.62C548.846,832.432 524.105,844.073 500,856.5L498.87,855.918Z" style="fill:rgb(228,153,0);"/>
        </g>
    </g>
</svg>
